<svg width="1443" height="1271" viewBox="0 0 1443 1271" fill="none" xmlns="http://www.w3.org/2000/svg">
<g clip-path="url(#clip0_10_82)">
<path d="M9.34619 0V1271" stroke="#353339"/>
<path d="M128.038 0V1271" stroke="#353339"/>
<path d="M246.731 0V1271" stroke="#353339"/>
<path d="M365.423 0V1271" stroke="#353339"/>
<path d="M484.115 0V1271" stroke="#353339"/>
<path d="M602.808 0V1271" stroke="#353339"/>
<path d="M721.5 0V1271" stroke="#353339"/>
<path d="M840.192 0V1271" stroke="#353339"/>
<path d="M958.885 0V1271" stroke="#353339"/>
<path d="M1077.58 0V1271" stroke="#353339"/>
<path d="M1196.27 0V1271" stroke="#353339"/>
<path d="M1314.96 0V1271" stroke="#353339"/>
<path d="M1433.65 0V1271" stroke="#353339"/>
<path d="M0 0H1443" stroke="#353339"/>
<path d="M0 105.917H1443" stroke="#353339"/>
<path d="M0 211.833H1443" stroke="#353339"/>
<path d="M0 317.75H1443" stroke="#353339"/>
<path d="M0 423.667H1443" stroke="#353339"/>
<path d="M0 529.583H1443" stroke="#353339"/>
<path d="M0 635.5H1443" stroke="#353339"/>
<path d="M0 741.417H1443" stroke="#353339"/>
<path d="M0 847.333H1443" stroke="#353339"/>
<path d="M0 953.25H1443" stroke="#353339"/>
<path d="M0 1059.17H1443" stroke="#353339"/>
<path d="M0 1165.08H1443" stroke="#353339"/>
<path d="M0 1271H1443" stroke="#353339"/>
</g>
<defs>
<clipPath id="clip0_10_82">
<rect width="1443" height="1271" fill="white"/>
</clipPath>
</defs>
</svg>
