<svg width="58" height="57" viewBox="0 0 58 57" fill="none" xmlns="http://www.w3.org/2000/svg">
<path fill-rule="evenodd" clip-rule="evenodd" d="M29.1662 4.85298L28.1016 11.1987C26.6733 19.7122 19.8771 26.3849 11.206 27.7872L4.74267 28.8324L11.206 29.8777C19.8771 31.28 26.6733 37.9526 28.1016 46.4661L29.1662 52.8119L30.2308 46.4661C31.6591 37.9526 38.4553 31.28 47.1265 29.8777L53.5898 28.8324L47.1265 27.7872C38.4553 26.3849 31.6591 19.7122 30.2308 11.1987L29.1662 4.85298ZM27.1149 11.0391L28.6729 1.75269H29.6596L31.2175 11.0391C32.5761 19.1374 39.0408 25.4845 47.289 26.8184L56.7475 28.348V29.3168L47.289 30.8464C39.0408 32.1803 32.5761 38.5275 31.2175 46.6257L29.6596 55.9122H28.6729L27.1149 46.6257C25.7563 38.5275 19.2916 32.1803 11.0434 30.8464L1.58496 29.3168V28.348L11.0434 26.8184C19.2916 25.4845 25.7563 19.1373 27.1149 11.0391Z" fill="#EC6FD5"/>
</svg>
