<svg width="155" height="88" viewBox="0 0 155 88" fill="none" xmlns="http://www.w3.org/2000/svg">
<g clip-path="url(#clip0_10_9)">
<path d="M155 44.5H51.5" stroke="white" stroke-width="5" stroke-linecap="round"/>
<path d="M78.5009 0.432034C78.5385 -0.948168 79.6878 -2.0366 81.068 -1.99906C82.4482 -1.96151 83.5366 -0.81219 83.4991 0.568011L78.5009 0.432034ZM42 44.4898L41.4452 46.9275C40.3042 46.6678 39.496 45.6513 39.5 44.4811C39.5041 43.3109 40.3194 42.3001 41.4622 42.0483L42 44.4898ZM83.5 88C83.5 89.3807 82.3807 90.5 81 90.5C79.6193 90.5 78.5 89.3807 78.5 88H83.5ZM83.4991 0.568011C83.3238 7.01161 82.027 16.6481 76.2278 25.6902C70.3792 34.8092 60.1205 43.058 42.5378 46.9313L41.4622 42.0483C57.8795 38.4318 66.9519 30.8915 72.019 22.9909C77.1354 15.0135 78.3386 6.4 78.5009 0.432034L83.4991 0.568011ZM42.5548 42.0521C59.4202 45.8904 69.7924 52.3769 75.8869 60.6398C81.9677 68.884 83.5 78.5102 83.5 88H78.5C78.5 78.9898 77.0323 70.616 71.8631 63.6077C66.7076 56.618 57.5798 50.5994 41.4452 46.9275L42.5548 42.0521Z" fill="white"/>
<path d="M36.5009 0.432034C36.5385 -0.948168 37.6878 -2.0366 39.068 -1.99906C40.4482 -1.96151 41.5366 -0.81219 41.4991 0.568011L36.5009 0.432034ZM-4.76837e-06 44.4898L-0.554773 46.9275C-1.69582 46.6678 -2.50405 45.6513 -2.49998 44.4811C-2.49592 43.3109 -1.68064 42.3001 -0.537832 42.0483L-4.76837e-06 44.4898ZM41.5 88C41.5 89.3807 40.3807 90.5 39 90.5C37.6193 90.5 36.5 89.3807 36.5 88H41.5ZM41.4991 0.568011C41.3238 7.01161 40.027 16.6481 34.2278 25.6902C28.3792 34.8092 18.1205 43.058 0.537822 46.9313L-0.537832 42.0483C15.8795 38.4318 24.9519 30.8915 30.019 22.9909C35.1354 15.0135 36.3386 6.4 36.5009 0.432034L41.4991 0.568011ZM0.554763 42.0521C17.4202 45.8904 27.7924 52.3769 33.8869 60.6398C39.9677 68.884 41.5 78.5102 41.5 88H36.5C36.5 78.9898 35.0323 70.616 29.8631 63.6077C24.7076 56.618 15.5798 50.5994 -0.554773 46.9275L0.554763 42.0521Z" fill="white"/>
</g>
<defs>
<clipPath id="clip0_10_9">
<rect width="155" height="88" fill="white"/>
</clipPath>
</defs>
</svg>
