<svg width="375" height="368" viewBox="0 0 375 368" fill="none" xmlns="http://www.w3.org/2000/svg">
<g clip-path="url(#clip0_10_110)">
<path d="M254.796 84.9254C255.204 82.4467 258.768 82.4468 259.176 84.9254L260.439 92.5924L268.106 93.8553C270.585 94.2635 270.585 97.8274 268.106 98.2357L260.439 99.4986L259.176 107.166C258.768 109.644 255.204 109.644 254.796 107.166L253.533 99.4986L245.866 98.2357C243.387 97.8274 243.387 94.2635 245.866 93.8553L253.533 92.5924L254.796 84.9254Z" fill="#2D2D2E"/>
<path d="M99.0467 84.9254C99.4549 82.4467 103.019 82.4468 103.427 84.9254L104.69 92.5924L112.357 93.8553C114.836 94.2635 114.836 97.8274 112.357 98.2357L104.69 99.4986L103.427 107.166C103.019 109.644 99.4549 109.644 99.0467 107.166L97.7838 99.4986L90.1168 98.2357C87.6382 97.8274 87.6382 94.2635 90.1168 93.8553L97.7838 92.5924L99.0467 84.9254Z" fill="#2D2D2E"/>
<path d="M99.0467 227.695C99.4549 225.216 103.019 225.216 103.427 227.695L104.69 235.362L112.357 236.625C114.836 237.033 114.836 240.597 112.357 241.005L104.69 242.268L103.427 249.935C103.019 252.414 99.4549 252.414 99.0467 249.935L97.7838 242.268L90.1168 241.005C87.6382 240.597 87.6382 237.033 90.1168 236.625L97.7838 235.362L99.0467 227.695Z" fill="#2D2D2E"/>
<path d="M254.796 227.695C255.204 225.216 258.768 225.216 259.176 227.695L260.439 235.362L268.106 236.625C270.585 237.033 270.585 240.597 268.106 241.005L260.439 242.268L259.176 249.935C258.768 252.414 255.204 252.414 254.796 249.935L253.533 242.268L245.866 241.005C243.387 240.597 243.387 237.033 245.866 236.625L253.533 235.362L254.796 227.695Z" fill="#2D2D2E"/>
<path d="M101.07 0V367.117" stroke="#2D2D2E" stroke-width="1.68919"/>
<path d="M256.475 0V367.117" stroke="#2D2D2E" stroke-width="1.68919"/>
<path d="M-0.00244141 96.0027L362.414 94.9143" stroke="#2D2D2E" stroke-width="1.68919"/>
<path d="M-0.00244141 239.021L362.414 237.932" stroke="#2D2D2E" stroke-width="1.68919"/>
</g>
<defs>
<clipPath id="clip0_10_110">
<rect width="375" height="368" fill="white"/>
</clipPath>
</defs>
</svg>
